<svg width="64" height="64" viewBox="0 0 64 64" fill="none" xmlns="http://www.w3.org/2000/svg">
  <rect width="64" height="64" rx="12" fill="#5c4694"/>
  <path d="M32 14C19.85 14 10 23.85 10 36C10 48.15 19.85 58 32 58C44.15 58 54 48.15 54 36C54 23.85 44.15 14 32 14ZM32 54C22.07 54 14 45.93 14 36C14 26.07 22.07 18 32 18C41.93 18 50 26.07 50 36C50 45.93 41.93 54 32 54Z" fill="#a26fbc"/>
  <path d="M32 22C24.28 22 18 28.28 18 36C18 43.72 24.28 50 32 50C39.72 50 46 43.72 46 36C46 28.28 39.72 22 32 22ZM32 46C26.5 46 22 41.5 22 36C22 30.5 26.5 26 32 26C37.5 26 42 30.5 42 36C42 41.5 37.5 46 32 46Z" fill="#fff"/>
  <circle cx="32" cy="36" r="6" fill="#a26fbc"/>
  <path d="M32 8L36 12H28L32 8Z" fill="#a26fbc"/>
  <path d="M40 10L42 15L37 13L40 10Z" fill="#a26fbc"/>
  <path d="M24 10L22 15L27 13L24 10Z" fill="#a26fbc"/>
</svg> 